<svg width="32" height="32" viewBox="0 0 32 32" fill="none" xmlns="http://www.w3.org/2000/svg">
<g id="ant-design:shopping-cart-outlined">
<path id="Vector" d="M24.0254 19.709H12.3945L12.9785 18.5195L22.6816 18.502C23.0098 18.502 23.291 18.2676 23.3496 17.9434L24.6933 10.4219C24.7285 10.2246 24.6758 10.0215 24.5469 9.86719C24.4832 9.79125 24.4037 9.73008 24.314 9.68792C24.2243 9.64577 24.1265 9.62363 24.0273 9.62305L11.6836 9.58203L11.5781 9.08594C11.5117 8.76953 11.2266 8.53906 10.9023 8.53906H7.88477C7.70191 8.53906 7.52655 8.6117 7.39725 8.741C7.26795 8.8703 7.19531 9.04566 7.19531 9.22852C7.19531 9.41137 7.26795 9.58674 7.39725 9.71603C7.52655 9.84533 7.70191 9.91797 7.88477 9.91797H10.3437L10.8047 12.1094L11.9395 17.6035L10.4785 19.9883C10.4026 20.0907 10.3569 20.2123 10.3466 20.3393C10.3362 20.4663 10.3616 20.5937 10.4199 20.707C10.5371 20.9395 10.7734 21.0859 11.0352 21.0859H12.2617C12.0002 21.4332 11.859 21.8563 11.8594 22.291C11.8594 23.3965 12.7578 24.2949 13.8633 24.2949C14.9687 24.2949 15.8672 23.3965 15.8672 22.291C15.8672 21.8555 15.7227 21.4316 15.4648 21.0859H18.6113C18.3498 21.4332 18.2086 21.8563 18.209 22.291C18.209 23.3965 19.1074 24.2949 20.2129 24.2949C21.3184 24.2949 22.2168 23.3965 22.2168 22.291C22.2168 21.8555 22.0723 21.4316 21.8144 21.0859H24.0273C24.4062 21.0859 24.7168 20.7773 24.7168 20.3965C24.7157 20.2138 24.6423 20.039 24.5128 19.9102C24.3833 19.7814 24.208 19.7091 24.0254 19.709ZM11.9707 10.9414L23.2168 10.9785L22.1152 17.1465L13.2812 17.1621L11.9707 10.9414ZM13.8633 22.9082C13.5234 22.9082 13.2461 22.6309 13.2461 22.291C13.2461 21.9512 13.5234 21.6738 13.8633 21.6738C14.2031 21.6738 14.4805 21.9512 14.4805 22.291C14.4805 22.4547 14.4154 22.6117 14.2997 22.7274C14.1839 22.8432 14.027 22.9082 13.8633 22.9082ZM20.2129 22.9082C19.873 22.9082 19.5957 22.6309 19.5957 22.291C19.5957 21.9512 19.873 21.6738 20.2129 21.6738C20.5527 21.6738 20.8301 21.9512 20.8301 22.291C20.8301 22.4547 20.765 22.6117 20.6493 22.7274C20.5336 22.8432 20.3766 22.9082 20.2129 22.9082Z" fill="#8E8E93"/>
</g>
</svg>
