<svg width="20" height="20" viewBox="0 0 20 20" fill="none" xmlns="http://www.w3.org/2000/svg">
<g id="bx:bx-like">
<path id="Vector" d="M3.33337 13.3333L8.01004 13.3333L7.07421 16.1392C6.90587 16.6458 6.99087 17.2075 7.30337 17.6408C7.61587 18.0742 8.12254 18.3333 8.65671 18.3333L10 18.3333C10.2475 18.3333 10.4817 18.2233 10.6409 18.0333L14.5575 13.3333L16.6667 13.3333C17.5859 13.3333 18.3334 12.5858 18.3334 11.6667L18.3334 4.16667C18.3334 3.2475 17.5859 2.5 16.6667 2.5L5.57754 2.5C5.23847 2.50113 4.90772 2.60513 4.62903 2.79827C4.35033 2.99141 4.13682 3.26458 4.01671 3.58167L1.71921 9.7075C1.68433 9.80107 1.66654 9.90014 1.66671 10L1.66671 11.6667C1.66671 12.5858 2.41421 13.3333 3.33337 13.3333ZM16.6667 11.6667L15 11.6667L15 4.16667L16.6667 4.16667L16.6667 11.6667ZM3.33337 10.1508L5.57754 4.16667L13.3334 4.16667L13.3334 12.1983L9.61004 16.6667L8.65504 16.6667L9.95671 12.7642C9.99896 12.6389 10.0108 12.5054 9.99109 12.3746C9.97143 12.2439 9.92089 12.1198 9.84366 12.0125C9.76642 11.9052 9.66473 11.8178 9.547 11.7577C9.42927 11.6976 9.29891 11.6664 9.16671 11.6667L3.33337 11.6667L3.33337 10.1508Z" fill="#8E8E93"/>
</g>
</svg>
