<svg width="32" height="32" viewBox="0 0 32 32" fill="none" xmlns="http://www.w3.org/2000/svg">
<g id="&#208;&#152;&#208;&#183;&#208;&#177;&#209;&#128;&#208;&#176;&#208;&#189;&#208;&#189;&#208;&#190;&#208;&#181;">
<rect id="Rectangle 15" width="32" height="32" rx="6" fill="white"/>
<path id="Vector" d="M15.2503 9.60018L16 10.4495L16.7497 9.60018C17.6225 8.61143 18.8718 8 20.2548 8C22.8491 8 25 10.1713 25 12.9094C25 14.3606 24.393 15.6583 23.4329 16.5549L21.5795 18.2857H21.7581L17.158 23.0172C16.8324 23.3521 16.5716 23.6175 16.3267 23.8064C16.1191 23.9665 16.0189 23.9943 16 23.999C15.9811 23.9943 15.8809 23.9665 15.6733 23.8064C15.4284 23.6175 15.1676 23.3521 14.842 23.0172L10.2419 18.2857H10.4206L8.56709 16.5548C7.60701 15.6583 7 14.3606 7 12.9094C7 10.1713 9.15088 8 11.7452 8C13.1282 8 14.3775 8.61143 15.2503 9.60018Z" stroke="#8E8E93" stroke-width="2"/>
</g>
</svg>
