<svg width="20" height="20" viewBox="0 0 20 20" fill="none" xmlns="http://www.w3.org/2000/svg">
<g id="bx:bx-like">
<path id="Vector" d="M16.6665 6.66699H11.9898L12.9257 3.86116C13.094 3.35449 13.009 2.79283 12.6965 2.35949C12.384 1.92616 11.8773 1.66699 11.3432 1.66699H9.99984C9.75234 1.66699 9.51817 1.77699 9.359 1.96699L5.44234 6.66699H3.33317C2.414 6.66699 1.6665 7.41449 1.6665 8.33366V15.8337C1.6665 16.7528 2.414 17.5003 3.33317 17.5003H14.4223C14.7614 17.4992 15.0922 17.3952 15.3709 17.2021C15.6495 17.0089 15.8631 16.7358 15.9832 16.4187L18.2807 10.2928C18.3156 10.1993 18.3333 10.1002 18.3332 10.0003V8.33366C18.3332 7.41449 17.5857 6.66699 16.6665 6.66699ZM3.33317 8.33366H4.99984V15.8337H3.33317V8.33366ZM16.6665 9.84949L14.4223 15.8337H6.6665V7.80199L10.3898 3.33366H11.3448L10.0432 7.23616C10.0009 7.36142 9.98913 7.49495 10.0088 7.62568C10.0285 7.75641 10.079 7.88057 10.1562 7.98786C10.2335 8.09515 10.3351 8.18249 10.4529 8.24263C10.5706 8.30277 10.701 8.33397 10.8332 8.33366H16.6665V9.84949Z" fill="#F05757"/>
</g>
</svg>
