<svg width="16" height="16" viewBox="0 0 16 16" fill="none" xmlns="http://www.w3.org/2000/svg">
<g id="Frame 58">
<g id="Vector 1">
<mask id="path-1-inside-1_2487_156" fill="white">
<path d="M1.28325 6.99409L13.5476 2.13488L8.68787 14.3987L7.06811 8.84524L1.28325 6.99409Z"/>
</mask>
<path d="M28.6493 29.6839L31.8891 26.3288L-11.2734 -15.3486L-14.5131 -11.9935L28.6493 29.6839ZM31.8891 26.3288L35.1288 22.9736L-8.03361 -18.7038L-11.2734 -15.3486L31.8891 26.3288ZM1.28325 6.99409L-20.8176 -48.7872L-176.787 13.0088L-17.0033 64.1395L1.28325 6.99409ZM13.5476 2.13488L69.3277 24.2386L120.444 -104.756L-8.5533 -53.6464L13.5476 2.13488ZM8.68787 14.3987L-48.9121 31.1987L0.0493575 199.067L64.468 36.5025L8.68787 14.3987ZM7.06811 8.84524L64.6681 -7.95475L55.7363 -38.5781L25.3546 -48.3002L7.06811 8.84524ZM23.3842 62.7754L35.6485 57.9162L-8.5533 -53.6464L-20.8176 -48.7872L23.3842 62.7754ZM-42.2325 -19.9689L-47.0923 -7.70505L64.468 36.5025L69.3277 24.2386L-42.2325 -19.9689ZM66.2879 -2.40129L64.6681 -7.95475L-50.5319 25.6452L-48.9121 31.1987L66.2879 -2.40129ZM25.3546 -48.3002L19.5698 -50.1514L-17.0033 64.1395L-11.2184 65.9907L25.3546 -48.3002Z" fill="white" mask="url(#path-1-inside-1_2487_156)"/>
</g>
</g>
</svg>
