<svg width="32" height="32" viewBox="0 0 32 32" fill="none" xmlns="http://www.w3.org/2000/svg">
<g id="&#208;&#161;&#209;&#130;&#208;&#176;&#209;&#130;&#208;&#184;&#209;&#129;&#209;&#130;&#208;&#184;&#208;&#186;&#208;&#176;">
<path id="Vector" d="M12.1429 9.78572C12.1429 9.07564 12.7185 8.5 13.4286 8.5V8.5C14.1387 8.5 14.7143 9.07563 14.7143 9.78571V24.7143C14.7143 25.4244 14.1387 26 13.4286 26V26C12.7185 26 12.1429 25.4244 12.1429 24.7143V9.78572ZM17.2857 12.2857C17.2857 11.5756 17.8613 11 18.5714 11V11C19.2815 11 19.8571 11.5756 19.8571 12.2857V24.7143C19.8571 25.4244 19.2815 26 18.5714 26V26C17.8613 26 17.2857 25.4244 17.2857 24.7143V12.2857ZM22.4286 7.28572C22.4286 6.57563 23.0042 6 23.7143 6V6C24.4244 6 25 6.57563 25 7.28571V24.7143C25 25.4244 24.4244 26 23.7143 26V26C23.0042 26 22.4286 25.4244 22.4286 24.7143V7.28572ZM7 17.2857C7 16.5756 7.57563 16 8.28571 16V16C8.99579 16 9.57143 16.5756 9.57143 17.2857V24.7143C9.57143 25.4244 8.99579 26 8.28571 26V26C7.57563 26 7 25.4244 7 24.7143V17.2857Z" fill="#8E8E93"/>
</g>
</svg>
